Monda-Medium-test-metric.ufo
<glyph name="period" format="1">
  <advance width="512"/>
  <unicode hex="002E"/>
  <outline>
    <contour>
      <point x="164" y="206" type="line"/>
      <point x="164" y="0" type="line"/>
      <point x="369" y="0" type="line"/>
      <point x="369" y="206" type="line"/>
    </contour>
  </outline>
</glyph>
<glyph name="eight" format="1">
  <advance width="1389"/>
  <unicode hex="0038"/>
  <outline>
    <contour>
      <point x="1208" y="367" type="curve" smooth="yes"/>
      <point x="1208" y="580"/>
      <point x="1039" y="703"/>
      <point x="881" y="773" type="curve"/>
      <point x="1032" y="842"/>
      <point x="1180" y="937"/>
      <point x="1180" y="1123" type="curve" smooth="yes"/>
      <point x="1180" y="1390"/>
      <point x="948" y="1481"/>
      <point x="696" y="1481" type="curve" smooth="yes"/>
      <point x="441" y="1481"/>
      <point x="209" y="1390"/>
      <point x="209" y="1123" type="curve" smooth="yes"/>
      <point x="209" y="937"/>
      <point x="357" y="842"/>
      <point x="508" y="773" type="curve"/>
      <point x="350" y="703"/>
      <point x="181" y="580"/>
      <point x="181" y="367" type="curve" smooth="yes"/>
      <point x="181" y="103"/>
      <point x="377" y="-23"/>
      <point x="691" y="-23" type="curve" smooth="yes"/>
      <point x="1001" y="-23"/>
      <point x="1208" y="103"/>
    </contour>
    <contour>
      <point x="404" y="1122" type="curve" smooth="yes"/>
      <point x="404" y="1245"/>
      <point x="495" y="1326"/>
      <point x="696" y="1326" type="curve" smooth="yes"/>
      <point x="895" y="1326"/>
      <point x="985" y="1245"/>
      <point x="985" y="1122" type="curve" smooth="yes"/>
      <point x="985" y="992"/>
      <point x="841" y="917"/>
      <point x="695" y="846" type="curve"/>
      <point x="549" y="916"/>
      <point x="404" y="992"/>
    </contour>
    <contour>
      <point x="1017" y="372" type="curve" smooth="yes"/>
      <point x="1017" y="199"/>
      <point x="884" y="138"/>
      <point x="696" y="138" type="curve" smooth="yes"/>
      <point x="505" y="138"/>
      <point x="372" y="199"/>
      <point x="372" y="372" type="curve" smooth="yes"/>
      <point x="372" y="529"/>
      <point x="532" y="601"/>
      <point x="695" y="680" type="curve"/>
      <point x="857" y="601"/>
      <point x="1017" y="529"/>
    </contour>
  </outline>
</glyph>
<glyph name="nine" format="1">
  <advance width="1473"/>
  <unicode hex="0039"/>
  <outline>
    <contour>
      <point x="734" y="1345" type="curve" smooth="yes"/>
      <point x="544" y="1345"/>
      <point x="388" y="1275"/>
      <point x="388" y="1040" type="curve" smooth="yes"/>
      <point x="388" y="794"/>
      <point x="543" y="731"/>
      <point x="732" y="731" type="curve" smooth="yes"/>
      <point x="924" y="731"/>
      <point x="1098" y="798"/>
      <point x="1098" y="1040" type="curve" smooth="yes"/>
      <point x="1098" y="1274"/>
      <point x="926" y="1345"/>
    </contour>
    <contour>
      <point x="584" y="0" type="line"/>
      <point x="932" y="621" type="line"/>
      <point x="887" y="602"/>
      <point x="787" y="584"/>
      <point x="724" y="584" type="curve" smooth="yes"/>
      <point x="433" y="584"/>
      <point x="187" y="710"/>
      <point x="187" y="1040" type="curve" smooth="yes"/>
      <point x="187" y="1358"/>
      <point x="447" y="1483"/>
      <point x="739" y="1483" type="curve" smooth="yes"/>
      <point x="1030" y="1483"/>
      <point x="1300" y="1360"/>
      <point x="1300" y="1040" type="curve" smooth="yes"/>
      <point x="1300" y="958"/>
      <point x="1283" y="888"/>
      <point x="1253" y="830" type="curve" smooth="yes"/>
      <point x="796" y="0" type="line"/>
    </contour>
  </outline>
</glyph>
<glyph name="B" format="1">
  <advance width="1467"/>
  <unicode hex="0042"/>
  <outline>
    <contour>
      <point x="433" y="696" type="line"/>
      <point x="863" y="696" type="line" smooth="yes"/>
      <point x="1084" y="696"/>
      <point x="1139" y="578"/>
      <point x="1139" y="446" type="curve" smooth="yes"/>
      <point x="1139" y="180"/>
      <point x="1010" y="149"/>
      <point x="786" y="149" type="curve" smooth="yes"/>
      <point x="433" y="149" type="line"/>
    </contour>
    <contour>
      <point x="433" y="833" type="line"/>
      <point x="433" y="1295" type="line"/>
      <point x="749" y="1295" type="line" smooth="yes"/>
      <point x="993" y="1295"/>
      <point x="1064" y="1256"/>
      <point x="1064" y="1047" type="curve" smooth="yes"/>
      <point x="1064" y="917"/>
      <point x="1016" y="833"/>
      <point x="834" y="833" type="curve" smooth="yes"/>
    </contour>
    <contour>
      <point x="806" y="-1" type="line" smooth="yes"/>
      <point x="1158" y="-1"/>
      <point x="1341" y="124"/>
      <point x="1341" y="411" type="curve" smooth="yes"/>
      <point x="1341" y="423"/>
      <point x="1341" y="435"/>
      <point x="1340" y="448" type="curve" smooth="yes"/>
      <point x="1332" y="602"/>
      <point x="1234" y="735"/>
      <point x="1083" y="773" type="curve"/>
      <point x="1197" y="813"/>
      <point x="1262" y="922"/>
      <point x="1265" y="1049" type="curve" smooth="yes"/>
      <point x="1265" y="1056"/>
      <point x="1265" y="1063"/>
      <point x="1265" y="1070" type="curve" smooth="yes"/>
      <point x="1265" y="1315"/>
      <point x="1159" y="1446"/>
      <point x="769" y="1446" type="curve" smooth="yes"/>
      <point x="231" y="1446" type="line"/>
      <point x="231" y="-1" type="line"/>
    </contour>
  </outline>
</glyph>
<glyph name="J" format="1">
  <advance width="1216"/>
  <unicode hex="004A"/>
  <outline>
    <contour>
      <point x="141" y="225" type="curve"/>
      <point x="86" y="70" type="line"/>
      <point x="151" y="36"/>
      <point x="338" y="-17"/>
      <point x="506" y="-17" type="curve" smooth="yes"/>
      <point x="831" y="-17"/>
      <point x="989" y="157"/>
      <point x="989" y="431" type="curve" smooth="yes"/>
      <point x="989" y="1446" type="line"/>
      <point x="234" y="1446" type="line"/>
      <point x="234" y="1281" type="line"/>
      <point x="788" y="1281" type="line"/>
      <point x="788" y="435" type="line" smooth="yes"/>
      <point x="788" y="248"/>
      <point x="691" y="148"/>
      <point x="500" y="148" type="curve" smooth="yes"/>
      <point x="354" y="148"/>
      <point x="188" y="203"/>
    </contour>
  </outline>
</glyph>
<glyph name="N" format="1">
  <advance width="1616"/>
  <unicode hex="004E"/>
  <outline>
    <contour>
      <point x="231" y="0" type="line"/>
      <point x="406" y="0" type="line"/>
      <point x="406" y="1115" type="line"/>
      <point x="1206" y="0" type="line"/>
      <point x="1385" y="0" type="line"/>
      <point x="1385" y="1446" type="line"/>
      <point x="1210" y="1446" type="line"/>
      <point x="1210" y="281" type="line"/>
      <point x="384" y="1446" type="line"/>
      <point x="231" y="1446" type="line"/>
    </contour>
  </outline>
</glyph>
<glyph name="bracketright" format="1">
  <advance width="804"/>
  <unicode hex="005D"/>
  <outline>
    <contour>
      <point x="182" y="1496" type="line"/>
      <point x="182" y="1382" type="line"/>
      <point x="369" y="1382" type="line"/>
      <point x="369" y="38" type="line"/>
      <point x="182" y="38" type="line"/>
      <point x="182" y="-76" type="line"/>
      <point x="580" y="-76" type="line"/>
      <point x="580" y="1496" type="line"/>
    </contour>
  </outline>
</glyph>
<glyph name="c" format="1">
  <advance width="1110"/>
  <unicode hex="0063"/>
  <outline>
    <contour>
      <point x="809.0" y="679.0" type="line"/>
      <point x="991.0" y="679.0" type="line"/>
      <point x="991.0" y="768.0" type="line" smooth="yes"/>
      <point x="991.0" y="981.0"/>
      <point x="842.0" y="1080.0"/>
      <point x="579.0" y="1080.0" type="curve" smooth="yes"/>
      <point x="316.0" y="1080.0"/>
      <point x="150" y="951"/>
      <point x="150.0" y="751.0" type="curve" smooth="yes"/>
      <point x="150" y="344" type="line" smooth="yes"/>
      <point x="150" y="148"/>
      <point x="263" y="-20"/>
      <point x="579" y="-20" type="curve" smooth="yes"/>
      <point x="869" y="-20"/>
      <point x="968" y="99"/>
      <point x="994" y="369" type="curve"/>
      <point x="824" y="369" type="line"/>
      <point x="808" y="188"/>
      <point x="755" y="121"/>
      <point x="579" y="121" type="curve" smooth="yes"/>
      <point x="432" y="121"/>
      <point x="338" y="186"/>
      <point x="338" y="328" type="curve" smooth="yes"/>
      <point x="338" y="746" type="line" smooth="yes"/>
      <point x="338" y="877"/>
      <point x="433.0" y="938.0"/>
      <point x="579.0" y="938.0" type="curve" smooth="yes"/>
      <point x="724.0" y="938.0"/>
      <point x="809.0" y="899.0"/>
      <point x="809.0" y="774.0" type="curve" smooth="yes"/>
    </contour>
  </outline>
</glyph>
<glyph name="d" format="1">
  <advance width="1192"/>
  <unicode hex="0064"/>
  <outline>
    <contour>
      <point x="827" y="189" type="line"/>
      <point x="784" y="163"/>
      <point x="689" y="126"/>
      <point x="582" y="126" type="curve" smooth="yes"/>
      <point x="444" y="126"/>
      <point x="338" y="187"/>
      <point x="338" y="314" type="curve" smooth="yes"/>
      <point x="338" y="756" type="line" smooth="yes"/>
      <point x="338" y="886"/>
      <point x="457" y="943"/>
      <point x="605" y="943" type="curve" smooth="yes"/>
      <point x="693" y="943"/>
      <point x="771" y="923"/>
      <point x="827" y="896" type="curve"/>
    </contour>
    <contour>
      <point x="827" y="1506" type="line"/>
      <point x="827" y="1044" type="line"/>
      <point x="761" y="1068"/>
      <point x="670" y="1084"/>
      <point x="603" y="1084" type="curve" smooth="yes"/>
      <point x="295" y="1084"/>
      <point x="150" y="948"/>
      <point x="150" y="735" type="curve" smooth="yes"/>
      <point x="150" y="328" type="line" smooth="yes"/>
      <point x="150" y="124"/>
      <point x="265" y="-16"/>
      <point x="570" y="-16" type="curve" smooth="yes"/>
      <point x="679" y="-16"/>
      <point x="794" y="17"/>
      <point x="856" y="61" type="curve"/>
      <point x="887" y="0" type="line"/>
      <point x="1015" y="0" type="line"/>
      <point x="1015" y="1506" type="line"/>
    </contour>
  </outline>
</glyph>
<glyph name="e" format="1">
  <advance width="1131"/>
  <unicode hex="0065"/>
  <outline>
    <contour>
      <point x="338" y="633" type="line"/>
      <point x="338" y="760" type="line" smooth="yes"/>
      <point x="338" y="891"/>
      <point x="431" y="938"/>
      <point x="581" y="938" type="curve" smooth="yes"/>
      <point x="726" y="938"/>
      <point x="819" y="906"/>
      <point x="819" y="778" type="curve" smooth="yes"/>
      <point x="819" y="633" type="line"/>
    </contour>
    <contour>
      <point x="150" y="344" type="line" smooth="yes"/>
      <point x="150" y="148"/>
      <point x="265" y="-20"/>
      <point x="581" y="-20" type="curve" smooth="yes"/>
      <point x="871" y="-20"/>
      <point x="979" y="73"/>
      <point x="1000" y="331" type="curve"/>
      <point x="830" y="331" type="line"/>
      <point x="817" y="148"/>
      <point x="747" y="121"/>
      <point x="581" y="121" type="curve" smooth="yes"/>
      <point x="434" y="121"/>
      <point x="338" y="186"/>
      <point x="338" y="328" type="curve" smooth="yes"/>
      <point x="338" y="506" type="line"/>
      <point x="1001" y="506" type="line"/>
      <point x="1001" y="758" type="line" smooth="yes"/>
      <point x="1001" y="959"/>
      <point x="857" y="1080"/>
      <point x="581" y="1080" type="curve" smooth="yes"/>
      <point x="302" y="1080"/>
      <point x="150" y="943"/>
      <point x="150" y="743" type="curve" smooth="yes"/>
    </contour>
  </outline>
</glyph>
<glyph name="f" format="1">
  <advance width="789"/>
  <unicode hex="0066"/>
  <outline>
    <contour>
      <point x="576" y="1446" type="line" smooth="yes"/>
      <point x="358" y="1446"/>
      <point x="282" y="1360"/>
      <point x="282" y="1162" type="curve" smooth="yes"/>
      <point x="282" y="1060" type="line"/>
      <point x="105" y="1060" type="line"/>
      <point x="105" y="943" type="line"/>
      <point x="282" y="943" type="line"/>
      <point x="282" y="0" type="line"/>
      <point x="470" y="0" type="line"/>
      <point x="470" y="943" type="line"/>
      <point x="735" y="943" type="line"/>
      <point x="735" y="1060" type="line"/>
      <point x="470" y="1060" type="line"/>
      <point x="470" y="1180" type="line" smooth="yes"/>
      <point x="470" y="1256"/>
      <point x="476" y="1313"/>
      <point x="591" y="1313" type="curve" smooth="yes"/>
      <point x="747" y="1313" type="line"/>
      <point x="747" y="1446" type="line"/>
    </contour>
  </outline>
</glyph>
<glyph name="i" format="1">
  <advance width="519"/>
  <unicode hex="0069"/>
  <outline>
    <contour>
      <point x="157" y="1446" type="line"/>
      <point x="157" y="1251" type="line"/>
      <point x="362" y="1251" type="line"/>
      <point x="362" y="1446" type="line"/>
    </contour>
    <contour>
      <point x="168" y="1060" type="line"/>
      <point x="168" y="0" type="line"/>
      <point x="355" y="0" type="line"/>
      <point x="355" y="1060" type="line"/>
    </contour>
  </outline>
</glyph>
<glyph name="j" format="1">
  <advance width="596"/>
  <unicode hex="006A"/>
  <outline>
    <contour>
      <point x="223" y="1446" type="line"/>
      <point x="223" y="1251" type="line"/>
      <point x="428" y="1251" type="line"/>
      <point x="428" y="1446" type="line"/>
    </contour>
    <contour>
      <point x="238" y="1061" type="line"/>
      <point x="238" y="26" type="line" smooth="yes"/>
      <point x="238" y="-14"/>
      <point x="237" y="-117"/>
      <point x="104" y="-117" type="curve" smooth="yes"/>
      <point x="34" y="-117" type="line"/>
      <point x="34" y="-251" type="line"/>
      <point x="140" y="-251" type="line" smooth="yes"/>
      <point x="316" y="-251"/>
      <point x="422" y="-153"/>
      <point x="422" y="9" type="curve" smooth="yes"/>
      <point x="422" y="1061" type="line"/>
    </contour>
  </outline>
</glyph>
<glyph name="k" format="1">
  <advance width="1149"/>
  <unicode hex="006B"/>
  <outline>
    <contour>
      <point x="190" y="1506" type="line"/>
      <point x="190" y="0" type="line"/>
      <point x="378" y="0" type="line"/>
      <point x="378" y="354" type="line"/>
      <point x="524" y="498" type="line"/>
      <point x="893" y="0" type="line"/>
      <point x="1102" y="0" type="line"/>
      <point x="670" y="583" type="line"/>
      <point x="1092" y="1060" type="line"/>
      <point x="884" y="1060" type="line"/>
      <point x="715" y="877"/>
      <point x="548" y="692"/>
      <point x="378" y="510" type="curve"/>
      <point x="378" y="1506" type="line"/>
    </contour>
  </outline>
</glyph>
<glyph name="n" format="1">
  <advance width="1175"/>
  <unicode hex="006E"/>
  <outline>
    <contour>
      <point x="170" y="0" type="line"/>
      <point x="358" y="0" type="line"/>
      <point x="358" y="755" type="line" smooth="yes"/>
      <point x="358" y="857"/>
      <point x="438" y="938"/>
      <point x="622" y="938" type="curve" smooth="yes"/>
      <point x="753" y="938"/>
      <point x="843" y="888"/>
      <point x="843" y="783" type="curve" smooth="yes"/>
      <point x="843" y="0" type="line"/>
      <point x="1031" y="0" type="line"/>
      <point x="1031" y="770" type="line" smooth="yes"/>
      <point x="1031" y="938"/>
      <point x="931" y="1080"/>
      <point x="670" y="1080" type="curve" smooth="yes"/>
      <point x="516" y="1080"/>
      <point x="420" y="1029"/>
      <point x="358" y="957" type="curve"/>
      <point x="358" y="1060" type="line"/>
      <point x="170" y="1060" type="line"/>
    </contour>
  </outline>
</glyph>
<glyph name="o" format="1">
  <advance width="1209"/>
  <unicode hex="006F"/>
  <outline>
    <contour>
      <point x="850" y="763" type="curve" smooth="yes"/>
      <point x="850" y="301" type="line" smooth="yes"/>
      <point x="850" y="171"/>
      <point x="743" y="121"/>
      <point x="604" y="121" type="curve" smooth="yes"/>
      <point x="457" y="121"/>
      <point x="349" y="170"/>
      <point x="349" y="301" type="curve" smooth="yes"/>
      <point x="349" y="763" type="line" smooth="yes"/>
      <point x="349" y="894"/>
      <point x="465" y="938"/>
      <point x="604" y="938" type="curve" smooth="yes"/>
      <point x="749" y="938"/>
      <point x="850" y="888"/>
    </contour>
    <contour>
      <point x="1038" y="747" type="line" smooth="yes"/>
      <point x="1038" y="947"/>
      <point x="867" y="1080"/>
      <point x="604" y="1080" type="curve" smooth="yes"/>
      <point x="341" y="1080"/>
      <point x="161" y="947"/>
      <point x="161" y="747" type="curve" smooth="yes"/>
      <point x="161" y="317" type="line" smooth="yes"/>
      <point x="161" y="121"/>
      <point x="288" y="-20"/>
      <point x="604" y="-20" type="curve" smooth="yes"/>
      <point x="933" y="-20"/>
      <point x="1038" y="122"/>
      <point x="1038" y="317" type="curve" smooth="yes"/>
    </contour>
  </outline>
</glyph>
<glyph name="r" format="1">
  <advance width="779"/>
  <unicode hex="0072"/>
  <outline>
    <contour>
      <point x="179" y="0" type="line"/>
      <point x="367" y="0" type="line"/>
      <point x="367" y="812" type="line"/>
      <point x="397" y="893"/>
      <point x="588" y="904"/>
      <point x="707" y="914" type="curve"/>
      <point x="713" y="1075" type="line"/>
      <point x="623" y="1088"/>
      <point x="418" y="1027"/>
      <point x="367" y="950" type="curve"/>
      <point x="367" y="1060" type="line"/>
      <point x="179" y="1060" type="line"/>
    </contour>
  </outline>
</glyph>
<glyph name="s" format="1">
  <advance width="988"/>
  <unicode hex="0073"/>
  <outline>
    <contour>
      <point x="105" y="91" type="line"/>
      <point x="155" y="45"/>
      <point x="305" y="-19"/>
      <point x="509" y="-20" type="curve" smooth="yes"/>
      <point x="510" y="-20"/>
      <point x="511" y="-20"/>
      <point x="512" y="-20" type="curve" smooth="yes"/>
      <point x="742" y="-20"/>
      <point x="883" y="88"/>
      <point x="888" y="276" type="curve" smooth="yes"/>
      <point x="888" y="280"/>
      <point x="888" y="284"/>
      <point x="888" y="289" type="curve" smooth="yes"/>
      <point x="888" y="454"/>
      <point x="808" y="516"/>
      <point x="653" y="584" type="curve" smooth="yes"/>
      <point x="419" y="688" type="line" smooth="yes"/>
      <point x="335" y="725"/>
      <point x="306" y="754"/>
      <point x="314" y="819" type="curve" smooth="yes"/>
      <point x="322" y="899"/>
      <point x="388" y="937"/>
      <point x="513" y="937" type="curve" smooth="yes"/>
      <point x="644" y="937"/>
      <point x="742" y="901"/>
      <point x="805" y="862" type="curve"/>
      <point x="871" y="991" type="line"/>
      <point x="819" y="1026"/>
      <point x="702" y="1081"/>
      <point x="499" y="1081" type="curve" smooth="yes"/>
      <point x="258" y="1081"/>
      <point x="134" y="969"/>
      <point x="130" y="823" type="curve" smooth="yes"/>
      <point x="126" y="660"/>
      <point x="216" y="595"/>
      <point x="355" y="534" type="curve" smooth="yes"/>
      <point x="582" y="435" type="line" smooth="yes"/>
      <point x="678" y="393"/>
      <point x="715" y="362"/>
      <point x="715" y="291" type="curve" smooth="yes"/>
      <point x="715" y="287"/>
      <point x="715" y="282"/>
      <point x="715" y="277" type="curve" smooth="yes"/>
      <point x="708" y="179"/>
      <point x="640" y="125"/>
      <point x="507" y="125" type="curve" smooth="yes"/>
      <point x="505" y="125"/>
      <point x="502" y="125"/>
      <point x="500" y="125" type="curve" smooth="yes"/>
      <point x="359" y="127"/>
      <point x="237" y="170"/>
      <point x="172" y="221" type="curve"/>
    </contour>
  </outline>
</glyph>
<glyph name="t" format="1">
  <advance width="824"/>
  <unicode hex="0074"/>
  <outline>
    <contour>
      <point x="623" y="-8" type="curve" smooth="yes"/>
      <point x="695" y="-8" type="line"/>
      <point x="715" y="136" type="line"/>
      <point x="650" y="136" type="line" smooth="yes"/>
      <point x="519" y="136"/>
      <point x="444" y="175"/>
      <point x="444" y="315" type="curve" smooth="yes"/>
      <point x="444" y="944" type="line"/>
      <point x="705" y="944" type="line"/>
      <point x="705" y="1061" type="line"/>
      <point x="444" y="1061" type="line"/>
      <point x="444" y="1388" type="line"/>
      <point x="287" y="1388" type="line"/>
      <point x="264" y="1061" type="line"/>
      <point x="80" y="1061" type="line"/>
      <point x="80" y="944" type="line"/>
      <point x="257" y="944" type="line"/>
      <point x="257" y="303" type="line" smooth="yes"/>
      <point x="257" y="70"/>
      <point x="384" y="-8"/>
    </contour>
  </outline>
</glyph>
<glyph name="cent" format="1">
  <advance width="1133"/>
  <unicode hex="00A2"/>
  <outline>
    <contour>
      <point x="831" y="694" type="line"/>
      <point x="1013" y="694" type="line"/>
      <point x="1013" y="771" type="line" smooth="yes"/>
      <point x="1013" y="968"/>
      <point x="879" y="1081"/>
      <point x="659" y="1101" type="curve"/>
      <point x="659" y="1275" type="line"/>
      <point x="522" y="1275" type="line"/>
      <point x="522" y="1101" type="line"/>
      <point x="296" y="1081"/>
      <point x="150" y="956"/>
      <point x="150" y="768" type="curve" smooth="yes"/>
      <point x="150" y="321" type="line" smooth="yes"/>
      <point x="150" y="135"/>
      <point x="254" y="0"/>
      <point x="522" y="-18" type="curve"/>
      <point x="522" y="-205" type="line"/>
      <point x="659" y="-205" type="line"/>
      <point x="659" y="-18" type="line"/>
      <point x="930" y="0"/>
      <point x="1013" y="125"/>
      <point x="1013" y="309" type="curve" smooth="yes"/>
      <point x="1013" y="364" type="line"/>
      <point x="831" y="364" type="line"/>
      <point x="831" y="289" type="line" smooth="yes"/>
      <point x="831" y="156"/>
      <point x="726" y="124"/>
      <point x="587" y="124" type="curve" smooth="yes"/>
      <point x="440" y="124"/>
      <point x="337" y="170"/>
      <point x="337" y="315" type="curve" smooth="yes"/>
      <point x="337" y="774" type="line" smooth="yes"/>
      <point x="337" y="908"/>
      <point x="441" y="959"/>
      <point x="587" y="959" type="curve" smooth="yes"/>
      <point x="732" y="959"/>
      <point x="831" y="920"/>
      <point x="831" y="792" type="curve" smooth="yes"/>
    </contour>
  </outline>
</glyph>
<glyph name="yen" format="1">
  <advance width="1318"/>
  <unicode hex="00A5"/>
  <outline>
    <contour>
      <point x="260" y="400" type="line"/>
      <point x="260" y="252" type="line"/>
      <point x="1063" y="252" type="line"/>
      <point x="1063" y="400" type="line"/>
    </contour>
    <contour>
      <point x="260" y="738" type="line"/>
      <point x="260" y="590" type="line"/>
      <point x="1063" y="590" type="line"/>
      <point x="1063" y="738" type="line"/>
    </contour>
    <contour>
      <point x="65" y="1446" type="line"/>
      <point x="572" y="568" type="line"/>
      <point x="572" y="0" type="line"/>
      <point x="773" y="0" type="line"/>
      <point x="773" y="568" type="line"/>
      <point x="1261" y="1446" type="line"/>
      <point x="1066" y="1446" type="line"/>
      <point x="673" y="744" type="line"/>
      <point x="266" y="1446" type="line"/>
    </contour>
  </outline>
</glyph>
<glyph name="registered" format="1">
  <advance width="1857"/>
  <unicode hex="00AE"/>
  <outline>
    <contour>
      <point x="930" y="82" type="curve" smooth="yes"/>
      <point x="566" y="82"/>
      <point x="281" y="357"/>
      <point x="281" y="722" type="curve" smooth="yes"/>
      <point x="281" y="1086"/>
      <point x="566" y="1361"/>
      <point x="930" y="1361" type="curve" smooth="yes"/>
      <point x="1296" y="1361"/>
      <point x="1579" y="1086"/>
      <point x="1579" y="722" type="curve" smooth="yes"/>
      <point x="1579" y="357"/>
      <point x="1296" y="82"/>
    </contour>
    <contour>
      <point x="928" y="-14" type="curve" smooth="yes"/>
      <point x="1344" y="-14"/>
      <point x="1685" y="303"/>
      <point x="1685" y="722" type="curve" smooth="yes"/>
      <point x="1685" y="1139"/>
      <point x="1344" y="1456"/>
      <point x="928" y="1456" type="curve" smooth="yes"/>
      <point x="515" y="1456"/>
      <point x="172" y="1139"/>
      <point x="172" y="722" type="curve" smooth="yes"/>
      <point x="172" y="303"/>
      <point x="515" y="-14"/>
    </contour>
    <contour>
      <point x="747" y="1068" type="line"/>
      <point x="1023" y="1068" type="line" smooth="yes"/>
      <point x="1141" y="1068"/>
      <point x="1150" y="966"/>
      <point x="1150" y="907" type="curve" smooth="yes"/>
      <point x="1150" y="865" type="line"/>
      <point x="1149" y="802"/>
      <point x="1128" y="730"/>
      <point x="1014" y="730" type="curve" smooth="yes"/>
      <point x="747" y="730" type="line"/>
    </contour>
    <contour>
      <point x="616" y="307" type="line"/>
      <point x="747" y="307" type="line"/>
      <point x="747" y="640" type="line"/>
      <point x="1006" y="640" type="line"/>
      <point x="1186" y="307" type="line"/>
      <point x="1314" y="307" type="line"/>
      <point x="1130" y="654" type="line"/>
      <point x="1222" y="679"/>
      <point x="1282" y="748"/>
      <point x="1282" y="882" type="curve" smooth="yes"/>
      <point x="1282" y="914" type="line" smooth="yes"/>
      <point x="1278" y="1088"/>
      <point x="1176" y="1159"/>
      <point x="1019" y="1159" type="curve" smooth="yes"/>
      <point x="616" y="1159" type="line"/>
    </contour>
  </outline>
</glyph>
<glyph name="paragraph" format="1">
  <advance width="1150"/>
  <unicode hex="00B6"/>
  <outline>
    <contour>
      <point x="443" y="0" type="line"/>
      <point x="579" y="0" type="line"/>
      <point x="579" y="1338" type="line"/>
      <point x="783" y="1338" type="line"/>
      <point x="783" y="0" type="line"/>
      <point x="919" y="0" type="line"/>
      <point x="919" y="1446" type="line"/>
      <point x="479" y="1446" type="line" smooth="yes"/>
      <point x="285" y="1446"/>
      <point x="126" y="1372"/>
      <point x="126" y="1156" type="curve" smooth="yes"/>
      <point x="126" y="976"/>
      <point x="271" y="874"/>
      <point x="443" y="870" type="curve"/>
    </contour>
  </outline>
</glyph>
<glyph name="onesuperior" format="1">
  <advance width="988"/>
  <unicode hex="00B9"/>
  <outline>
    <contour>
      <point x="468.9375" y="602.248046875" type="line"/>
      <point x="207.0" y="602.248046875" type="line"/>
      <point x="207.0" y="501.0" type="line"/>
      <point x="831.470703125" y="501.0" type="line"/>
      <point x="831.470703125" y="602.248046875" type="line"/>
      <point x="600.233398438" y="602.248046875" type="line"/>
      <point x="600.233398438" y="1445.54492188" type="line"/>
      <point x="493.106445312" y="1445.54492188" type="line"/>
      <point x="212.87890625" y="1412.88378906" type="line"/>
      <point x="224.63671875" y="1309.0234375" type="line"/>
      <point x="468.9375" y="1335.15136719" type="line"/>
    </contour>
  </outline>
</glyph>
<glyph name="Adieresis" format="1">
  <advance width="1376"/>
  <unicode hex="00C4"/>
  <outline>
    <contour>
      <point x="836.5" y="1605" type="line"/>
      <point x="1042.5" y="1605" type="line"/>
      <point x="1042.5" y="1786" type="line"/>
      <point x="836.5" y="1786" type="line"/>
    </contour>
    <contour>
      <point x="333.5" y="1605" type="line"/>
      <point x="539.5" y="1605" type="line"/>
      <point x="539.5" y="1786" type="line"/>
      <point x="333.5" y="1786" type="line"/>
    </contour>
    <contour>
      <point x="959.0" y="417" type="line"/>
      <point x="424.0" y="417" type="line"/>
      <point x="693.0" y="1184" type="line"/>
    </contour>
    <contour>
      <point x="1308.0" y="0" type="line"/>
      <point x="776.0" y="1446" type="line"/>
      <point x="599.0" y="1446" type="line"/>
      <point x="68.0" y="0" type="line"/>
      <point x="277.0" y="0" type="line"/>
      <point x="376.0" y="282" type="line"/>
      <point x="1005.0" y="282" type="line"/>
      <point x="1103.0" y="0" type="line"/>
    </contour>
  </outline>
</glyph>
<glyph name="Edieresis" format="1">
  <advance width="1241"/>
  <unicode hex="00CB"/>
  <outline>
    <contour>
      <point x="805.5" y="1605" type="line"/>
      <point x="1011.5" y="1605" type="line"/>
      <point x="1011.5" y="1786" type="line"/>
      <point x="805.5" y="1786" type="line"/>
    </contour>
    <contour>
      <point x="302.5" y="1605" type="line"/>
      <point x="508.5" y="1605" type="line"/>
      <point x="508.5" y="1786" type="line"/>
      <point x="302.5" y="1786" type="line"/>
    </contour>
    <contour>
      <point x="231.0" y="1446" type="line"/>
      <point x="231.0" y="0" type="line"/>
      <point x="1083.0" y="0" type="line"/>
      <point x="1083.0" y="150" type="line"/>
      <point x="432.0" y="150" type="line"/>
      <point x="432.0" y="664" type="line"/>
      <point x="1013.0" y="664" type="line"/>
      <point x="1013.0" y="814" type="line"/>
      <point x="432.0" y="814" type="line"/>
      <point x="432.0" y="1296" type="line"/>
      <point x="1074.0" y="1296" type="line"/>
      <point x="1074.0" y="1446" type="line"/>
    </contour>
  </outline>
</glyph>
<glyph name="Udieresis" format="1">
  <advance width="1526"/>
  <unicode hex="00DC"/>
  <outline>
    <contour>
      <point x="911.5" y="1605" type="line"/>
      <point x="1117.5" y="1605" type="line"/>
      <point x="1117.5" y="1786" type="line"/>
      <point x="911.5" y="1786" type="line"/>
    </contour>
    <contour>
      <point x="408.5" y="1605" type="line"/>
      <point x="614.5" y="1605" type="line"/>
      <point x="614.5" y="1786" type="line"/>
      <point x="408.5" y="1786" type="line"/>
    </contour>
    <contour>
      <point x="202.0" y="473" type="line" smooth="yes"/>
      <point x="202.0" y="202"/>
      <point x="300.0" y="-24"/>
      <point x="773.0" y="-24" type="curve" smooth="yes"/>
      <point x="1226.0" y="-24"/>
      <point x="1324.0" y="205"/>
      <point x="1324.0" y="473" type="curve" smooth="yes"/>
      <point x="1324.0" y="1446" type="line"/>
      <point x="1122.0" y="1446" type="line"/>
      <point x="1122.0" y="452" type="line" smooth="yes"/>
      <point x="1122.0" y="186"/>
      <point x="976.0" y="132"/>
      <point x="773.0" y="132" type="curve" smooth="yes"/>
      <point x="572.0" y="132"/>
      <point x="404.0" y="186"/>
      <point x="404.0" y="452" type="curve" smooth="yes"/>
      <point x="404.0" y="1446" type="line"/>
      <point x="202.0" y="1446" type="line"/>
    </contour>
  </outline>
</glyph>
<glyph name="ydieresis" format="1">
  <advance width="1148"/>
  <unicode hex="00FF"/>
  <outline>
    <contour>
      <point x="736.5" y="1202" type="line"/>
      <point x="942.5" y="1202" type="line"/>
      <point x="942.5" y="1383" type="line"/>
      <point x="736.5" y="1383" type="line"/>
    </contour>
    <contour>
      <point x="233.5" y="1202" type="line"/>
      <point x="439.5" y="1202" type="line"/>
      <point x="439.5" y="1383" type="line"/>
      <point x="233.5" y="1383" type="line"/>
    </contour>
    <contour>
      <point x="229.0" y="-322" type="line"/>
      <point x="334.0" y="-322" type="line" smooth="yes"/>
      <point x="555.0" y="-322"/>
      <point x="630.0" y="-227"/>
      <point x="723.0" y="45" type="curve" smooth="yes"/>
      <point x="1105.0" y="1060" type="line"/>
      <point x="915.0" y="1060" type="line"/>
      <point x="610.0" y="216" type="line"/>
      <point x="270.0" y="1060" type="line"/>
      <point x="71.0" y="1060" type="line"/>
      <point x="524.0" y="4" type="line"/>
      <point x="484.0" y="-145"/>
      <point x="408.0" y="-175"/>
      <point x="327.0" y="-175" type="curve" smooth="yes"/>
      <point x="229.0" y="-175" type="line"/>
    </contour>
  </outline>
</glyph>
<glyph name="Amacron" format="1">
  <advance width="1376"/>
  <unicode hex="0100"/>
  <outline>
    <contour>
      <point x="487.5" y="1757" type="line"/>
      <point x="487.5" y="1605" type="line"/>
      <point x="888.5" y="1605" type="line"/>
      <point x="888.5" y="1757" type="line"/>
    </contour>
    <contour>
      <point x="959.0" y="417" type="line"/>
      <point x="424.0" y="417" type="line"/>
      <point x="693.0" y="1184" type="line"/>
    </contour>
    <contour>
      <point x="1308.0" y="0" type="line"/>
      <point x="776.0" y="1446" type="line"/>
      <point x="599.0" y="1446" type="line"/>
      <point x="68.0" y="0" type="line"/>
      <point x="277.0" y="0" type="line"/>
      <point x="376.0" y="282" type="line"/>
      <point x="1005.0" y="282" type="line"/>
      <point x="1103.0" y="0" type="line"/>
    </contour>
  </outline>
</glyph>
<glyph name="ccaron" format="1">
  <advance width="1130"/>
  <unicode hex="010D"/>
  <outline>
    <contour>
      <point x="649.5" y="1202" type="line"/>
      <point x="866.5" y="1468" type="line"/>
      <point x="705.5" y="1468" type="line"/>
      <point x="573.5" y="1294" type="line"/>
      <point x="449.5" y="1468" type="line"/>
      <point x="293.5" y="1468" type="line"/>
      <point x="499.5" y="1202" type="line"/>
    </contour>
    <contour>
      <point x="828.0" y="679" type="line"/>
      <point x="1010.0" y="679" type="line"/>
      <point x="1010.0" y="768" type="line" smooth="yes"/>
      <point x="1010.0" y="981"/>
      <point x="850.0" y="1080"/>
      <point x="587.0" y="1080" type="curve" smooth="yes"/>
      <point x="324.0" y="1080"/>
      <point x="150.0" y="951"/>
      <point x="150.0" y="751" type="curve" smooth="yes"/>
      <point x="150.0" y="314" type="line" smooth="yes"/>
      <point x="150.0" y="118"/>
      <point x="271.0" y="-20"/>
      <point x="587.0" y="-20" type="curve" smooth="yes"/>
      <point x="916.0" y="-20"/>
      <point x="1010.0" y="94"/>
      <point x="1010.0" y="289" type="curve" smooth="yes"/>
      <point x="1010.0" y="356" type="line"/>
      <point x="828.0" y="356" type="line"/>
      <point x="828.0" y="283" type="line" smooth="yes"/>
      <point x="828.0" y="153"/>
      <point x="726.0" y="121"/>
      <point x="587.0" y="121" type="curve" smooth="yes"/>
      <point x="440.0" y="121"/>
      <point x="337.0" y="166"/>
      <point x="337.0" y="308" type="curve" smooth="yes"/>
      <point x="337.0" y="757" type="line" smooth="yes"/>
      <point x="337.0" y="888"/>
      <point x="441.0" y="938"/>
      <point x="587.0" y="938" type="curve" smooth="yes"/>
      <point x="732.0" y="938"/>
      <point x="828.0" y="899"/>
      <point x="828.0" y="774" type="curve" smooth="yes"/>
    </contour>
  </outline>
</glyph>
<glyph name="Edotaccent" format="1">
  <advance width="1241"/>
  <unicode hex="0116"/>
  <outline>
    <contour>
      <point x="530" y="1846" type="line"/>
      <point x="530" y="1605" type="line"/>
      <point x="784" y="1605" type="line"/>
      <point x="784" y="1846" type="line"/>
    </contour>
    <contour>
      <point x="231" y="1446" type="line"/>
      <point x="231" y="0" type="line"/>
      <point x="1083" y="0" type="line"/>
      <point x="1083" y="150" type="line"/>
      <point x="432" y="150" type="line"/>
      <point x="432" y="664" type="line"/>
      <point x="1013" y="664" type="line"/>
      <point x="1013" y="814" type="line"/>
      <point x="432" y="814" type="line"/>
      <point x="432" y="1296" type="line"/>
      <point x="1074" y="1296" type="line"/>
      <point x="1074" y="1446" type="line"/>
    </contour>
  </outline>
</glyph>
<glyph name="Gbreve" format="1">
  <advance width="1516"/>
  <unicode hex="011E"/>
  <outline>
    <contour>
      <point x="526.5" y="1817" type="line"/>
      <point x="526.5" y="1702"/>
      <point x="613.5" y="1605"/>
      <point x="752.5" y="1605" type="curve" smooth="yes"/>
      <point x="891.5" y="1605"/>
      <point x="979.5" y="1702"/>
      <point x="979.5" y="1817" type="curve"/>
      <point x="873.5" y="1817" type="line"/>
      <point x="873.5" y="1748"/>
      <point x="825.5" y="1701"/>
      <point x="752.5" y="1701" type="curve" smooth="yes"/>
      <point x="683.5" y="1701"/>
      <point x="631.5" y="1751"/>
      <point x="631.5" y="1817" type="curve"/>
    </contour>
    <contour>
      <point x="1232.0" y="0" type="line"/>
      <point x="1323.0" y="0" type="line"/>
      <point x="1323.0" y="735" type="line"/>
      <point x="883.0" y="735" type="line"/>
      <point x="883.0" y="588" type="line"/>
      <point x="1107.0" y="588" type="line"/>
      <point x="1107.0" y="455" type="line" smooth="yes"/>
      <point x="1107.0" y="199"/>
      <point x="1020.0" y="126"/>
      <point x="762.0" y="126" type="curve" smooth="yes"/>
      <point x="506.0" y="126"/>
      <point x="385.0" y="199"/>
      <point x="385.0" y="455" type="curve" smooth="yes"/>
      <point x="385.0" y="992" type="line" smooth="yes"/>
      <point x="385.0" y="1249"/>
      <point x="512.0" y="1332"/>
      <point x="766.0" y="1332" type="curve" smooth="yes"/>
      <point x="1022.0" y="1332"/>
      <point x="1107.0" y="1249"/>
      <point x="1107.0" y="992" type="curve" smooth="yes"/>
      <point x="1107.0" y="900" type="line"/>
      <point x="1302.0" y="900" type="line"/>
      <point x="1302.0" y="942" type="line" smooth="yes"/>
      <point x="1302.0" y="1248"/>
      <point x="1233.0" y="1483"/>
      <point x="766.0" y="1483" type="curve" smooth="yes"/>
      <point x="281.0" y="1483"/>
      <point x="183.0" y="1261"/>
      <point x="183.0" y="955" type="curve" smooth="yes"/>
      <point x="183.0" y="486" type="line" smooth="yes"/>
      <point x="183.0" y="185"/>
      <point x="279.0" y="-24"/>
      <point x="762.0" y="-24" type="curve" smooth="yes"/>
      <point x="1048.0" y="-24"/>
      <point x="1154.0" y="96"/>
      <point x="1188.0" y="216" type="curve"/>
    </contour>
  </outline>
</glyph>
<glyph name="breve" format="1">
  <advance width="677"/>
  <unicode hex="02D8"/>
  <outline>
    <contour>
      <point x="112" y="1483" type="line"/>
      <point x="112" y="1368"/>
      <point x="199" y="1271"/>
      <point x="338" y="1271" type="curve" smooth="yes"/>
      <point x="477" y="1271"/>
      <point x="565" y="1368"/>
      <point x="565" y="1483" type="curve"/>
      <point x="459" y="1483" type="line"/>
      <point x="459" y="1414"/>
      <point x="411" y="1367"/>
      <point x="338" y="1367" type="curve" smooth="yes"/>
      <point x="269" y="1367"/>
      <point x="217" y="1417"/>
      <point x="217" y="1483" type="curve"/>
    </contour>
  </outline>
</glyph>
<glyph name="ring" format="1">
  <advance width="627"/>
  <unicode hex="02DA"/>
  <outline>
    <contour>
      <point x="314" y="1192" type="curve" smooth="yes"/>
      <point x="257" y="1192"/>
      <point x="205" y="1218"/>
      <point x="205" y="1306" type="curve" smooth="yes"/>
      <point x="205" y="1393"/>
      <point x="258" y="1418"/>
      <point x="314" y="1418" type="curve" smooth="yes"/>
      <point x="372" y="1418"/>
      <point x="422" y="1391"/>
      <point x="422" y="1304" type="curve" smooth="yes"/>
      <point x="422" y="1217"/>
      <point x="371" y="1192"/>
    </contour>
    <contour>
      <point x="314" y="1127" type="curve" smooth="yes"/>
      <point x="414" y="1127"/>
      <point x="508" y="1182"/>
      <point x="508" y="1305" type="curve" smooth="yes"/>
      <point x="508" y="1428"/>
      <point x="414" y="1483"/>
      <point x="314" y="1483" type="curve" smooth="yes"/>
      <point x="214" y="1483"/>
      <point x="119" y="1428"/>
      <point x="119" y="1305" type="curve" smooth="yes"/>
      <point x="119" y="1182"/>
      <point x="214" y="1127"/>
    </contour>
  </outline>
</glyph>
<glyph name="bullet" format="1">
  <advance width="975"/>
  <unicode hex="2022"/>
  <outline>
    <contour>
      <point x="180" y="599" type="curve" smooth="yes"/>
      <point x="180" y="404"/>
      <point x="260" y="298"/>
      <point x="486" y="298" type="curve" smooth="yes"/>
      <point x="713" y="298"/>
      <point x="795" y="405"/>
      <point x="795" y="599" type="curve" smooth="yes"/>
      <point x="795" y="795"/>
      <point x="714" y="901"/>
      <point x="487" y="901" type="curve" smooth="yes"/>
      <point x="262" y="901"/>
      <point x="180" y="795"/>
    </contour>
  </outline>
</glyph>
<glyph name="fi" format="1">
  <advance width="1248"/>
  <unicode hex="FB01"/>
  <outline>
    <contour>
      <point x="557" y="1446" type="line" smooth="yes"/>
      <point x="339" y="1446"/>
      <point x="263" y="1347"/>
      <point x="263" y="1149" type="curve" smooth="yes"/>
      <point x="263" y="1060" type="line"/>
      <point x="101" y="1060" type="line"/>
      <point x="101" y="943" type="line"/>
      <point x="263" y="943" type="line"/>
      <point x="263" y="0" type="line"/>
      <point x="451" y="0" type="line"/>
      <point x="451" y="943" type="line"/>
      <point x="935" y="943" type="line"/>
      <point x="935" y="1060" type="line"/>
      <point x="451" y="1060" type="line"/>
      <point x="451" y="1180" type="line" smooth="yes"/>
      <point x="451" y="1256"/>
      <point x="457" y="1313"/>
      <point x="592" y="1313" type="curve" smooth="yes"/>
      <point x="663" y="1313" type="line"/>
      <point x="663" y="1446" type="line"/>
    </contour>
    <contour>
      <point x="853" y="1434" type="line"/>
      <point x="853" y="1233" type="line"/>
      <point x="1058" y="1233" type="line"/>
      <point x="1058" y="1434" type="line"/>
    </contour>
    <contour>
      <point x="864" y="1060" type="line"/>
      <point x="864" y="0" type="line"/>
      <point x="1051" y="0" type="line"/>
      <point x="1051" y="1060" type="line"/>
    </contour>
    <contour>
      <point x="853" y="1434" type="line"/>
      <point x="853" y="1233" type="line"/>
      <point x="1058" y="1233" type="line"/>
      <point x="1058" y="1434" type="line"/>
    </contour>
    <contour>
      <point x="864" y="1060" type="line"/>
      <point x="864" y="0" type="line"/>
      <point x="1051" y="0" type="line"/>
      <point x="1051" y="1060" type="line"/>
    </contour>
    <contour>
      <point x="853" y="1434" type="line"/>
      <point x="853" y="1233" type="line"/>
      <point x="1058" y="1233" type="line"/>
      <point x="1058" y="1434" type="line"/>
    </contour>
    <contour>
      <point x="864" y="1060" type="line"/>
      <point x="864" y="0" type="line"/>
      <point x="1051" y="0" type="line"/>
      <point x="1051" y="1060" type="line"/>
    </contour>
    <contour>
      <point x="853" y="1434" type="line"/>
      <point x="853" y="1233" type="line"/>
      <point x="1058" y="1233" type="line"/>
      <point x="1058" y="1434" type="line"/>
    </contour>
    <contour>
      <point x="864" y="1060" type="line"/>
      <point x="864" y="0" type="line"/>
      <point x="1051" y="0" type="line"/>
      <point x="1051" y="1060" type="line"/>
    </contour>
    <contour>
      <point x="853" y="1434" type="line"/>
      <point x="853" y="1233" type="line"/>
      <point x="1058" y="1233" type="line"/>
      <point x="1058" y="1434" type="line"/>
    </contour>
    <contour>
      <point x="864" y="1060" type="line"/>
      <point x="864" y="0" type="line"/>
      <point x="1051" y="0" type="line"/>
      <point x="1051" y="1060" type="line"/>
    </contour>
    <contour>
      <point x="853" y="1434" type="line"/>
      <point x="853" y="1233" type="line"/>
      <point x="1058" y="1233" type="line"/>
      <point x="1058" y="1434" type="line"/>
    </contour>
    <contour>
      <point x="864" y="1060" type="line"/>
      <point x="864" y="0" type="line"/>
      <point x="1051" y="0" type="line"/>
      <point x="1051" y="1060" type="line"/>
    </contour>
    <contour>
      <point x="853" y="1434" type="line"/>
      <point x="853" y="1233" type="line"/>
      <point x="1058" y="1233" type="line"/>
      <point x="1058" y="1434" type="line"/>
    </contour>
    <contour>
      <point x="864" y="1060" type="line"/>
      <point x="864" y="0" type="line"/>
      <point x="1051" y="0" type="line"/>
      <point x="1051" y="1060" type="line"/>
    </contour>
  </outline>
</glyph>
